<mxfile host="app.diagrams.net" modified="2020-12-19T00:16:11.612Z" agent="5.0 (Windows)" etag="viBSuBwIgD2N15Md7EzS" version="14.1.1" type="github">
  <diagram name="Page-1" id="90a13364-a465-7bf4-72fc-28e22215d7a0">
    <mxGraphModel dx="981" dy="526" grid="1" gridSize="10" guides="1" tooltips="1" connect="1" arrows="1" fold="1" page="1" pageScale="1.5" pageWidth="1169" pageHeight="826" background="#ffffff" math="0" shadow="0">
      <root>
        <mxCell id="0" style=";html=1;" />
        <mxCell id="1" style=";html=1;" parent="0" />
        <mxCell id="IyIKw5Cx_Xmirl8VIL_M-1" value="&lt;div&gt;&lt;b&gt;Combinatorial &lt;br&gt;&lt;/b&gt;&lt;/div&gt;&lt;div&gt;&lt;b&gt;Chemical Space&lt;/b&gt;&lt;/div&gt;" style="rounded=0;whiteSpace=wrap;html=1;" vertex="1" parent="1">
          <mxGeometry x="620" y="430" width="170" height="210" as="geometry" />
        </mxCell>
        <mxCell id="IyIKw5Cx_Xmirl8VIL_M-3" value="" style="rounded=0;whiteSpace=wrap;html=1;fillColor=#CCCCCC;" vertex="1" parent="1">
          <mxGeometry x="620" y="430" width="20" height="20" as="geometry" />
        </mxCell>
        <mxCell id="IyIKw5Cx_Xmirl8VIL_M-24" style="edgeStyle=orthogonalEdgeStyle;rounded=0;orthogonalLoop=1;jettySize=auto;html=1;endArrow=classic;endFill=1;" edge="1" parent="1" source="IyIKw5Cx_Xmirl8VIL_M-9" target="IyIKw5Cx_Xmirl8VIL_M-11">
          <mxGeometry relative="1" as="geometry" />
        </mxCell>
        <mxCell id="IyIKw5Cx_Xmirl8VIL_M-25" style="edgeStyle=orthogonalEdgeStyle;rounded=0;orthogonalLoop=1;jettySize=auto;html=1;entryX=0.5;entryY=0;entryDx=0;entryDy=0;endArrow=classic;endFill=1;" edge="1" parent="1" source="IyIKw5Cx_Xmirl8VIL_M-9" target="IyIKw5Cx_Xmirl8VIL_M-13">
          <mxGeometry relative="1" as="geometry" />
        </mxCell>
        <mxCell id="IyIKw5Cx_Xmirl8VIL_M-9" value="" style="rounded=0;whiteSpace=wrap;html=1;labelBackgroundColor=#BABABA;fillColor=#CCCCCC;" vertex="1" parent="1">
          <mxGeometry x="345" y="330" width="70" height="20" as="geometry" />
        </mxCell>
        <mxCell id="IyIKw5Cx_Xmirl8VIL_M-11" value="&lt;b&gt;Topological Features Computation&lt;/b&gt;" style="rounded=0;whiteSpace=wrap;html=1;" vertex="1" parent="1">
          <mxGeometry x="200" y="520" width="120" height="60" as="geometry" />
        </mxCell>
        <mxCell id="IyIKw5Cx_Xmirl8VIL_M-21" style="edgeStyle=orthogonalEdgeStyle;rounded=0;orthogonalLoop=1;jettySize=auto;html=1;entryX=0.5;entryY=0;entryDx=0;entryDy=0;" edge="1" parent="1" source="IyIKw5Cx_Xmirl8VIL_M-12" target="IyIKw5Cx_Xmirl8VIL_M-16">
          <mxGeometry relative="1" as="geometry" />
        </mxCell>
        <mxCell id="IyIKw5Cx_Xmirl8VIL_M-12" value="&lt;b&gt;Conformer Feasibility Evaluation&lt;br&gt;&lt;/b&gt;" style="rounded=0;whiteSpace=wrap;html=1;spacing=5;" vertex="1" parent="1">
          <mxGeometry x="440" y="520" width="120" height="60" as="geometry" />
        </mxCell>
        <mxCell id="IyIKw5Cx_Xmirl8VIL_M-20" style="edgeStyle=orthogonalEdgeStyle;rounded=0;orthogonalLoop=1;jettySize=auto;html=1;entryX=0.5;entryY=0;entryDx=0;entryDy=0;" edge="1" parent="1" source="IyIKw5Cx_Xmirl8VIL_M-13" target="IyIKw5Cx_Xmirl8VIL_M-12">
          <mxGeometry relative="1" as="geometry" />
        </mxCell>
        <mxCell id="IyIKw5Cx_Xmirl8VIL_M-13" value="&lt;b&gt;Compute 3D Conformers&lt;br&gt;&lt;/b&gt;" style="rounded=0;whiteSpace=wrap;html=1;" vertex="1" parent="1">
          <mxGeometry x="440" y="400" width="120" height="60" as="geometry" />
        </mxCell>
        <mxCell id="IyIKw5Cx_Xmirl8VIL_M-16" value="&lt;div&gt;&lt;h3 style=&quot;line-height: 50%&quot;&gt;&lt;font style=&quot;font-size: 12px&quot;&gt;Training Targets&lt;/font&gt;&lt;/h3&gt;&lt;/div&gt;&lt;div style=&quot;line-height: 70% ; font-size: 10px&quot;&gt;&lt;p style=&quot;line-height: 90%&quot;&gt;&lt;font style=&quot;font-size: 9px&quot;&gt;(Feasible / Infeasible)&lt;/font&gt;&lt;/p&gt;&lt;/div&gt;" style="rounded=0;whiteSpace=wrap;html=1;" vertex="1" parent="1">
          <mxGeometry x="440" y="640" width="120" height="60" as="geometry" />
        </mxCell>
        <mxCell id="IyIKw5Cx_Xmirl8VIL_M-17" value="&lt;b&gt;Training Set&lt;/b&gt;" style="rounded=0;whiteSpace=wrap;html=1;" vertex="1" parent="1">
          <mxGeometry x="320" y="780" width="120" height="60" as="geometry" />
        </mxCell>
        <mxCell id="IyIKw5Cx_Xmirl8VIL_M-19" style="edgeStyle=orthogonalEdgeStyle;rounded=0;orthogonalLoop=1;jettySize=auto;html=1;" edge="1" parent="1" source="IyIKw5Cx_Xmirl8VIL_M-18" target="IyIKw5Cx_Xmirl8VIL_M-1">
          <mxGeometry relative="1" as="geometry" />
        </mxCell>
        <mxCell id="IyIKw5Cx_Xmirl8VIL_M-18" value="&lt;b&gt;Machine Learning Model Training&lt;br&gt;&lt;/b&gt;" style="rounded=0;whiteSpace=wrap;html=1;" vertex="1" parent="1">
          <mxGeometry x="320" y="910" width="120" height="65" as="geometry" />
        </mxCell>
        <mxCell id="IyIKw5Cx_Xmirl8VIL_M-27" value="" style="endArrow=classic;html=1;exitX=0.5;exitY=0;exitDx=0;exitDy=0;entryX=0.5;entryY=0;entryDx=0;entryDy=0;rounded=0;" edge="1" parent="1" source="IyIKw5Cx_Xmirl8VIL_M-3" target="IyIKw5Cx_Xmirl8VIL_M-9">
          <mxGeometry relative="1" as="geometry">
            <mxPoint x="640" y="570" as="sourcePoint" />
            <mxPoint x="740" y="570" as="targetPoint" />
            <Array as="points">
              <mxPoint x="630" y="280" />
              <mxPoint x="380" y="280" />
            </Array>
          </mxGeometry>
        </mxCell>
        <mxCell id="IyIKw5Cx_Xmirl8VIL_M-28" value="&lt;p&gt;&lt;font style=&quot;font-size: 10px&quot;&gt;Small sample (1%)&lt;/font&gt;&lt;/p&gt;" style="edgeLabel;resizable=0;html=1;align=center;verticalAlign=middle;labelBackgroundColor=none;" connectable="0" vertex="1" parent="IyIKw5Cx_Xmirl8VIL_M-27">
          <mxGeometry relative="1" as="geometry">
            <mxPoint x="-45" y="-10" as="offset" />
          </mxGeometry>
        </mxCell>
        <mxCell id="IyIKw5Cx_Xmirl8VIL_M-40" value="" style="endArrow=classic;html=1;strokeColor=#000000;exitX=0.5;exitY=1;exitDx=0;exitDy=0;entryX=0.5;entryY=0;entryDx=0;entryDy=0;" edge="1" parent="1" source="IyIKw5Cx_Xmirl8VIL_M-11" target="IyIKw5Cx_Xmirl8VIL_M-17">
          <mxGeometry relative="1" as="geometry">
            <mxPoint x="380" y="690" as="sourcePoint" />
            <mxPoint x="540" y="690" as="targetPoint" />
            <Array as="points">
              <mxPoint x="260" y="740" />
              <mxPoint x="380" y="740" />
            </Array>
          </mxGeometry>
        </mxCell>
        <mxCell id="IyIKw5Cx_Xmirl8VIL_M-51" value="&lt;h2 style=&quot;font-size: 14px;&quot;&gt;(X)&lt;/h2&gt;" style="edgeLabel;html=1;align=center;verticalAlign=middle;resizable=0;points=[];labelBackgroundColor=none;fontSize=14;" vertex="1" connectable="0" parent="IyIKw5Cx_Xmirl8VIL_M-40">
          <mxGeometry x="-0.3268" y="-2" relative="1" as="geometry">
            <mxPoint x="15" y="-94.14" as="offset" />
          </mxGeometry>
        </mxCell>
        <mxCell id="IyIKw5Cx_Xmirl8VIL_M-44" value="" style="endArrow=classic;html=1;strokeColor=#000000;exitX=0.5;exitY=1;exitDx=0;exitDy=0;" edge="1" parent="1" source="IyIKw5Cx_Xmirl8VIL_M-17" target="IyIKw5Cx_Xmirl8VIL_M-18">
          <mxGeometry relative="1" as="geometry">
            <mxPoint x="380" y="630" as="sourcePoint" />
            <mxPoint x="540" y="630" as="targetPoint" />
          </mxGeometry>
        </mxCell>
        <mxCell id="IyIKw5Cx_Xmirl8VIL_M-45" value="&lt;font style=&quot;font-size: 14px;&quot;&gt;&lt;b style=&quot;font-size: 14px;&quot;&gt;(X, y)&lt;br style=&quot;font-size: 14px;&quot;&gt;&lt;/b&gt;&lt;/font&gt;" style="edgeLabel;resizable=0;html=1;align=center;verticalAlign=middle;fontSize=14;" connectable="0" vertex="1" parent="IyIKw5Cx_Xmirl8VIL_M-44">
          <mxGeometry relative="1" as="geometry">
            <mxPoint x="20" y="-25.17" as="offset" />
          </mxGeometry>
        </mxCell>
        <mxCell id="IyIKw5Cx_Xmirl8VIL_M-47" value="" style="endArrow=classic;html=1;strokeColor=#000000;exitX=0.5;exitY=1;exitDx=0;exitDy=0;entryX=0.5;entryY=0;entryDx=0;entryDy=0;" edge="1" parent="1" source="IyIKw5Cx_Xmirl8VIL_M-16" target="IyIKw5Cx_Xmirl8VIL_M-17">
          <mxGeometry relative="1" as="geometry">
            <mxPoint x="380" y="630" as="sourcePoint" />
            <mxPoint x="540" y="630" as="targetPoint" />
            <Array as="points">
              <mxPoint x="500" y="740" />
              <mxPoint x="380" y="740" />
            </Array>
          </mxGeometry>
        </mxCell>
        <mxCell id="IyIKw5Cx_Xmirl8VIL_M-49" value="&lt;h2 style=&quot;font-size: 14px;&quot;&gt;(y)&lt;/h2&gt;" style="edgeLabel;resizable=0;html=1;align=center;verticalAlign=middle;spacing=1;labelBackgroundColor=none;fontSize=14;" connectable="0" vertex="1" parent="IyIKw5Cx_Xmirl8VIL_M-47">
          <mxGeometry x="-1" relative="1" as="geometry">
            <mxPoint x="12" y="10" as="offset" />
          </mxGeometry>
        </mxCell>
      </root>
    </mxGraphModel>
  </diagram>
</mxfile>
